# xmcd
#
# Track frame offsets: 
#        150
#        15597
#        30437
#        47640
#        67039
#        81479
#        100819
#        117810
#        134635
#        146314
#        160557
#
# Disc length: 2398 seconds
#
# Revision: 0
# Processed by: cddbd v1.5.2PL0 Copyright (c) Steve Scherf et al.
# Submitted via: ExactAudioCopyFreeDBPlugin 1.0
#
DISCID=8a095c0b
DTITLE=Holtsø and Wittrock - Glemte nætter
DYEAR=2015
DGENRE=Blues
TTITLE0=Det' dyrt at være fattig
TTITLE1=Mit Rock 'N' Roll
TTITLE2=Glemte Nætter
TTITLE3=Langsomt
TTITLE4=Hvis det var op til mig
TTITLE5=Her står jeg igen
TTITLE6=Alt er godt
TTITLE7=Borbon Street
TTITLE8=Mustang
TTITLE9=Gammeldags Mand
TTITLE10=Når du gør det der
EXTD=
EXTT0=
EXTT1=
EXTT2=
EXTT3=
EXTT4=
EXTT5=
EXTT6=
EXTT7=
EXTT8=
EXTT9=
EXTT10=
PLAYORDER=
